<svg width="128" height="128" viewBox="0 0 128 128" fill="none" xmlns="http://www.w3.org/2000/svg">
<path d="M37.965 6.93423C35.845 7.00623 33.825 7.52223 32 8.57423C28.352 10.6802 26.174 14.5442 25.195 19.1172C24.217 23.6912 24.32 29.1302 25.295 35.2172C25.671 37.5642 26.221 40.0322 26.857 42.5552C24.354 43.2652 21.941 44.0252 19.721 44.8732C13.961 47.0732 9.201 49.7032 5.729 52.8382C2.256 55.9722 0 59.7882 0 64.0002C0 68.2122 2.256 72.0302 5.729 75.1642C9.2 78.3002 13.96 80.9302 19.72 83.1302C21.94 83.9782 24.353 84.7362 26.856 85.4472C26.22 87.9702 25.67 90.4382 25.294 92.7842C24.319 98.8742 24.218 104.311 25.196 108.884C26.176 113.459 28.351 117.322 31.999 119.428C35.647 121.534 40.079 121.488 44.53 120.048C48.98 118.608 53.64 115.801 58.425 111.912C60.269 110.414 62.132 108.706 64 106.892C65.866 108.706 67.73 110.414 69.574 111.912C74.358 115.802 79.016 118.609 83.467 120.049C87.917 121.489 92.352 121.534 96 119.429C99.648 117.322 101.826 113.459 102.805 108.885C103.783 104.311 103.678 98.8732 102.703 92.7852C102.327 90.4382 101.779 87.9702 101.143 85.4472C103.646 84.7372 106.059 83.9772 108.279 83.1302C114.039 80.9312 118.799 78.3002 122.271 75.1652C125.744 72.0302 128 68.2122 128 64.0002C128 59.7882 125.744 55.9722 122.271 52.8382C118.799 49.7042 114.039 47.0722 108.279 44.8732C106.059 44.0262 103.648 43.2652 101.145 42.5552C101.781 40.0322 102.329 37.5632 102.705 35.2172C103.68 29.1302 103.781 23.6912 102.803 19.1172C101.825 14.5422 99.649 10.6802 96 8.57423C92.352 6.46923 87.92 6.51423 83.469 7.95423C79.019 9.39423 74.359 12.2022 69.574 16.0902C67.73 17.5902 65.864 19.2982 63.997 21.1122C62.13 19.2992 60.267 17.5892 58.423 16.0902C53.64 12.2022 48.984 9.39223 44.534 7.95223C42.308 7.23223 40.086 6.86223 37.964 6.93223L37.965 6.93423ZM38.221 12.4792C39.551 12.4412 41.075 12.6862 42.821 13.2492C46.311 14.3792 50.496 16.8192 54.914 20.4092C56.616 21.7912 58.357 23.3912 60.111 25.0992C56.447 29.0592 52.813 33.5622 49.297 38.5332C43.234 39.0932 37.517 39.9892 32.254 41.1832C31.654 38.8092 31.138 36.5032 30.791 34.3362C29.891 28.7162 29.871 23.8712 30.639 20.2832C31.406 16.6962 32.841 14.5162 34.783 13.3952C35.754 12.8352 36.891 12.5152 38.221 12.4792ZM89.78 12.4792C91.11 12.5162 92.247 12.8342 93.218 13.3952C95.16 14.5152 96.595 16.6952 97.362 20.2822C98.13 23.8692 98.112 28.7152 97.212 34.3362C96.865 36.5012 96.35 38.8102 95.749 41.1822C90.487 39.9892 84.769 39.0922 78.704 38.5332C75.188 33.5632 71.552 29.0592 67.888 25.0982C69.642 23.3912 71.385 21.7902 73.087 20.4082C77.505 16.8162 81.69 14.3802 85.181 13.2502C86.926 12.6862 88.451 12.4422 89.781 12.4802L89.78 12.4792ZM64 29.1022C66.6187 31.9591 69.1015 34.9378 71.44 38.0282C68.996 37.9182 66.523 37.8442 64 37.8442C61.478 37.8442 59.005 37.9172 56.56 38.0282C58.8985 34.9378 61.3813 31.9591 64 29.1022ZM64 43.4102C67.985 43.4102 71.87 43.5672 75.634 43.8502C77.823 47.0558 79.8908 50.3424 81.833 53.7032C83.7727 57.0663 85.5853 60.501 87.267 64.0002C85.5852 67.4987 83.7726 70.9328 81.833 74.2952C79.8905 77.657 77.8223 80.9447 75.633 84.1512C71.87 84.4342 67.985 84.5922 64.001 84.5922C60.1175 84.5911 56.2355 84.4444 52.363 84.1522C50.1746 80.9453 48.1075 77.6573 46.166 74.2952C44.2264 70.9335 42.4138 67.5001 40.732 64.0022C42.4144 60.503 44.2277 57.0683 46.168 53.7052C48.1106 50.3438 50.1787 47.0565 52.368 43.8502C56.2388 43.5581 60.1182 43.4113 64 43.4102ZM45.227 44.5732C43.8859 46.6603 42.5922 48.7775 41.347 50.9232C40.1112 53.0741 38.9242 55.2526 37.787 57.4572C36.2792 53.8869 34.9404 50.2475 33.775 46.5512C37.365 45.7512 41.187 45.0812 45.227 44.5732ZM82.774 44.5732C86.6203 45.0525 90.4418 45.7125 94.226 46.5512C93.0606 50.2482 91.7218 53.8882 90.214 57.4592C89.0769 55.2536 87.8899 53.074 86.654 50.9222C85.4088 48.7765 84.1151 46.6593 82.774 44.5722V44.5732ZM28.365 47.9142C29.963 53.0682 32.046 58.4682 34.595 63.9982C32.045 69.5302 29.965 74.9322 28.365 80.0862C26.01 79.4212 23.755 78.7122 21.705 77.9302C16.386 75.9002 12.181 73.4922 9.457 71.0322C6.734 68.5742 5.564 66.2422 5.564 63.9992C5.564 61.7572 6.734 59.4272 9.457 56.9692C12.181 54.5092 16.387 52.1022 21.705 50.0722C23.755 49.2892 26.01 48.5792 28.365 47.9132V47.9142ZM99.635 47.9142C101.991 48.5802 104.247 49.2902 106.295 50.0742C111.615 52.1042 115.82 54.5102 118.544 56.9692C121.267 59.4292 122.437 61.7592 122.437 64.0002C122.437 66.2432 121.267 68.5752 118.544 71.0332C115.82 73.4932 111.614 75.8992 106.296 77.9302C104.246 78.7122 101.989 79.4202 99.634 80.0862C98.036 74.9332 95.954 69.5332 93.407 64.0022C95.956 58.4702 98.036 53.0692 99.635 47.9142ZM64 52.5922C60.9746 52.5928 58.0732 53.7948 55.9339 55.9341C53.7946 58.0734 52.5925 60.9748 52.592 64.0002C52.5925 67.0258 53.7947 69.9273 55.9343 72.0667C58.0738 74.206 60.9754 75.408 64.001 75.4082C67.0264 75.4077 69.9278 74.2056 72.0671 72.0663C74.2064 69.927 75.4085 67.0257 75.409 64.0002C75.4085 60.9746 74.2063 58.0731 72.0667 55.9338C69.9272 53.7945 67.0256 52.5925 64 52.5922ZM90.214 70.5432C91.7211 74.1143 93.0592 77.7543 94.224 81.4512C90.636 82.2512 86.814 82.9222 82.776 83.4312C84.1161 81.3431 85.4088 79.2249 86.653 77.0782C87.8889 74.9271 89.0768 72.7482 90.214 70.5432ZM37.787 70.5452C38.9242 72.7495 40.1111 74.9277 41.347 77.0782C42.5926 79.2243 43.8863 81.3422 45.227 83.4302C41.3807 82.9507 37.5591 82.2903 33.775 81.4512C34.9404 77.7549 36.2792 74.1156 37.787 70.5452ZM32.252 86.8202C37.514 88.0122 43.232 88.9072 49.297 89.4662C52.813 94.4392 56.449 98.9432 60.113 102.906C58.359 104.611 56.618 106.211 54.916 107.596C50.498 111.186 46.309 113.626 42.818 114.756C39.328 115.884 36.723 115.729 34.781 114.608C32.839 113.486 31.406 111.308 30.639 107.721C29.871 104.133 29.89 99.2882 30.791 93.6652C31.138 91.5002 31.651 89.1922 32.252 86.8202ZM95.747 86.8202C96.347 89.1922 96.863 91.5002 97.21 93.6652C98.11 99.2882 98.13 104.133 97.362 107.721C96.595 111.309 95.16 113.488 93.218 114.611C91.276 115.731 88.672 115.884 85.181 114.754C81.69 113.624 77.505 111.184 73.087 107.594C71.386 106.211 69.643 104.611 67.89 102.904C71.554 98.9442 75.188 94.4382 78.704 89.4662C84.767 88.9072 90.484 88.0122 95.747 86.8202ZM56.56 89.9722C59.0386 90.0904 61.5196 90.1524 64.001 90.1582C66.4828 90.1524 68.9641 90.0904 71.443 89.9722C69.104 93.0641 66.6205 96.0441 64.001 98.9022C61.3821 96.044 58.8984 93.0641 56.56 89.9722Z" fill="#097EA4"/>
</svg>
